<?xml version="1.0" encoding="UTF-8" standalone="no"?>
<!-- Created with Inkscape (http://www.inkscape.org/) -->
<svg id="svg2512" xmlns:rdf="http://www.w3.org/1999/02/22-rdf-syntax-ns#" xmlns="http://www.w3.org/2000/svg" height="768px" width="1024px" version="1.1" xmlns:cc="http://creativecommons.org/ns#" xmlns:xlink="http://www.w3.org/1999/xlink" xmlns:dc="http://purl.org/dc/elements/1.1/">
 <defs id="defs2514">
  <linearGradient id="linearGradient2537">
   <stop id="stop2539" stop-color="#d4702e" offset="0"/>
   <stop id="stop2541" stop-color="#e5a54e" offset="1"/>
  </linearGradient>
  <linearGradient id="linearGradient2845" y2="-256.41" xlink:href="#linearGradient2537" gradientUnits="userSpaceOnUse" x2="852.43" gradientTransform="matrix(0.802294,0,0,0.749655,-268.5628,653.6548)" y1="-870.05" x1="855.15"/>
  <linearGradient id="linearGradient2847" y2="930.65" xlink:href="#linearGradient2537" gradientUnits="userSpaceOnUse" x2="-643.5" gradientTransform="translate(1619.885,-231.1279)" y1="800.64" x1="-643.97"/>
  <linearGradient id="linearGradient2849" y2="937.68" xlink:href="#linearGradient2537" gradientUnits="userSpaceOnUse" x2="-1016.9" gradientTransform="translate(1625.236,-235.0033)" y1="806.35" x1="-1017.7"/>
  <linearGradient id="linearGradient2851" y2="393.72" xlink:href="#linearGradient2537" gradientUnits="userSpaceOnUse" x2="-1545.3" gradientTransform="translate(2344.278,193.0314)" y1="336.17" x1="-1545.6"/>
  <linearGradient id="linearGradient2853" y2="448.77" xlink:href="#linearGradient2537" gradientUnits="userSpaceOnUse" x2="-1280.3" gradientTransform="translate(2341.952,192.282)" y1="338.1" x1="-1281.3"/>
 </defs>
 <metadata id="metadata2517">
  <rdf:RDF>
   <cc:Work rdf:about="">
    <dc:format>image/svg+xml</dc:format>
    <dc:type rdf:resource="http://purl.org/dc/dcmitype/StillImage"/>
    <dc:title/>
    <dc:date>Wed Dec 28 14:31:06 EST 2005</dc:date>
    <dc:creator>
     <cc:Agent>
      <dc:title>Sean E. Russell</dc:title>
     </cc:Agent>
    </dc:creator>
    <dc:rights>
     <cc:Agent>
      <dc:title/>
     </cc:Agent>
    </dc:rights>
    <dc:subject>
     <rdf:Bag>
      <rdf:li>samurai</rdf:li>
     </rdf:Bag>
    </dc:subject>
    <cc:license rdf:resource="http://artlibre.org/licence.php/lalgb.html"/>
    <dc:description>This is patterned after a bitmap from http://6t-web-ftp2.dyndns.org/galerie/displayimage.php?pid=359&amp;fullsize=1</dc:description>
   </cc:Work>
   <cc:License rdf:about="http://artlibre.org/licence.php/lalgb.html">
    <cc:permits rdf:resource="http://web.resource.org/cc/Reproduction"/>
    <cc:permits rdf:resource="http://web.resource.org/cc/Distribution"/>
    <cc:permits rdf:resource="http://web.resource.org/cc/DerivativeWorks"/>
    <cc:requires rdf:resource="http://web.resource.org/cc/ShareAlike"/>
    <cc:requires rdf:resource="http://web.resource.org/cc/Notice"/>
    <cc:requires rdf:resource="http://web.resource.org/cc/Attribution"/>
   </cc:License>
  </rdf:RDF>
 </metadata>
 <g id="layer1">
  <path id="path1483" fill="url(#linearGradient2845)" d="M0.85999,385.24v-383.82h513.47,513.47v383.82,383.82h-513.47-513.47v-383.82z"/>
  <g id="g2797" transform="matrix(0.794591,0,0,0.71756,58.3023,85.23695)">
   <path id="path2780" d="M856.04,700.63v-28.8c-4.74-0.39-9.43-2.63-8.33-4.22,0,0,2.24,1.11,7.51,0.31,0,0,0.36-6.53,0.36-6.53-4.35-0.18-6.73-1.8-6.72-3.6,3.56-0.84,9.84,1.32,16.87-7.25,0,0,0.39-7.31,0.39-7.31-2.16-1.37-5.88-0.47-6.99-4.53,6.35-2.11,11.59-3.36,12.55-7.61,0,0,1.53-4.92,1.53-4.92s0.91,4.41,0.91,4.41,16.13-3.17,16.13-3.17,0.72-3.25,0.72-3.25c2.18,5.75,4.65,15.6,14.14,15.1-1.31,1.81-4.02,3.11-7.45,3.65,0,0,0.15,6.08,0.15,6.08s24.91-2.8,24.91-2.8,0.44-4.45,0.44-4.45c-4.4-1.1-5.94-0.07-6.4-5.3,9.82,2.75,13.11-4.9,14.2-9.93,3.12,7.11,17.66,4.73,21.36-5.91,2.02-0.67,2.66,0.83,1.72-2.73-5.12-0.2-8.84,0.25-11.82-5.06,6.04-0.92,9.97,2.25,20.7-5.18,0,0,0.02-10.33,0.02-10.33-2.6-0.6-7.91,0.3-9.51-4.84-0.77-2.45,4.07,0.37,9.4-1.42,4.52-3.5,11.99-15.57,11.99-15.57s0.44-7.06,0.44-7.06,1.88,5.84,1.88,5.84,24.56,6.44,24.56,6.44,0.5-5.68,0.5-5.68,0.1,4.86,0.1,4.86c3.5,10.03,17.2,12.23,22.1,13.63-0.3,2.75-3.9,4.11-8.5,4.88v10.49c10.4,4.39,13.4,7.6,21,5.62-0.9,2.72-3,3.52-6.9,4.13,0,0-0.1,4.04-0.1,4.04,7.7,11.29,9.2,10.51,16.6,9.47-0.2,4.75-8.3,4.83-11.4,5.68v5.18c7,3.65,10.6,7.5,21.9,7.65-1.4,3.97-8.2,1.97-11.6,7.49,0,0,1.3,41.2,1.3,41.2l-190.66,1.3z" fill-rule="evenodd" fill="url(#linearGradient2847)"/>
   <g id="g2770">
    <path id="path2745" d="M590.76,692.67c1.38,8.33-1.6,9.38,4.17,9.33,5.63,4.72,9.74,4.34,14.41,3.57,5.12-0.74,10.31-0.33,15.41-1.28,0,0,0.79-13.91,0.79-13.91,4.64-0.21,6.08-0.17,12.45-1.53,3.71-0.63,8.28-1.82,12.07-5.27-10.43-2.38-20.77-1.51-20.38-6.48-6.97-0.44-7.52,1.41-6.89-5.32,5.91-1.03,8.52-1.09,13-2.51,3.06,0.4,9.13-1.64,9.9-4.68-5.24,0.39-9.3-1.87-17.21-2.46,0.11-4.78,0.09-4.26-5.95-3.58-0.98-5.87-2.06-2.98,6.99-4.77,4.21-0.95,7.4-1.75,13.73-6.62-3.61-0.23-8.87-0.29-12.91-1.41-4.39,0.39-4.22-0.35-4.09-4.4-3.55,1.49-7.1,1-4.56-1.77,4.74-0.73,6.93-1.03,12.08-3.15,4.03-1.28,6.25-3.46,7.92-6.46-6.46,1.21-11.55,0.88-17.59-1.59-1.14-5.55-1.55,0.31,8.49-7.38,4.18-1.23,5.51-4.44,6.82-6.47-11.12,0.9-13.77-2.77-20.41-4.49-5.73-1.95-10.27-5.11-11.04-11.94,0,0-0.79-25.33-0.79-25.33s-0.07,24.86-1.64,29.88c-2.77,4.16-7.26,5.64-11.97,2.99-2.09,5.92-3.09,9.55-7.83,12.93-1.15,3.42-5.15,4.24-5.15,4.24,5.4,5.18,10.39,4.01,10.35-0.5,2.57-3.42,6.23,3.04,6.98,3.26-3.44,0.92-5.82-5.82-5.99,0.44-2.22,4.17-7.62,9.75-13.27,10.45,4.66,2.69,10.64,4.36,16.12,4.2,2.08,5.18-5.01-2.23-5.61,5.5-1.8,4.44-8.79,3.05-12.81,3.75,3.26,4.31,11.28,5.02,16.29,5.17,2.11,3.63,0.58,6.2-3.4,4.32-0.43,5.25-8.9,5.53-13.25,4.73-0.62,4.48,4.08,7.13,8.62,6.07,0,0,7.15,1.91,7.15,1.91,1.98,7.27-3.71,0.89-3.92,6.47-3.32,1.5-11.63,2.22-15.05-0.48,3.81,6.34,8.29,8.6,13.18,11.18,4.83-0.23,5.23,0,4.79,3.39z" fill-rule="evenodd" fill="url(#linearGradient2849)"/>
    <g id="g2672" transform="translate(-58.15992,138.915)">
     <path id="path2643" d="M683.62,575.35c70.08-55.65,125.35-62.14,230.14-11.27,90.24,43.79,266.24,34.69,329.64,6,0,0,24.8-12.44,34.5-17.44,0,0-1,259.13-1,259.13l-744.24-41.13c3.19-130.93,83.89-136.21,150.96-195.29z" fill-rule="evenodd" fill="url(#linearGradient2851)"/>
     <path id="path2609" d="M1277.3,604.85c-254.8-140.47-348.11-35.5-382.32-16.27-126.74,58.71-198.33,10.48-241.39-14.68-75.51-44.12-147.72-27.39-180.61-3.57-0.51,0.37-1.51,243.7-1.51,243.7s805.23-0.88,805.23-0.88,2-209.39,0.6-208.3z" fill-rule="evenodd" fill="url(#linearGradient2853)"/>
     <g id="g2657" transform="translate(-518.9352,-325.7317)">
      <path id="path1473" fill="#b06e32" d="M508.96,992.06c0.02-139.62,0.13-148.11,1.84-154.25,4.14-14.84,30.86-78.43,44.24-105.32,14.22-28.55,19.92-36.98,35.4-52.27,30.43-30.08,63.26-45.71,103.58-49.32,13.83-1.24,19.78-3.01,21.56-6.4,0.84-1.6,2.67-2.98,4.62-3.48,1.99-0.52,3.36-1.58,3.59-2.78,0.52-2.74,1.95-3.35,5.46-2.34,1.67,0.48,3.26,0.66,3.52,0.39,0.26-0.26-1.11-3.96-3.06-8.23-1.95-4.26-4.55-10.35-5.79-13.53-2.3-5.92-4.71-8.54-9.81-10.65-2.57-1.07-3.34-0.91-6.68,1.36-3.2,2.17-4.9,2.57-11.02,2.57-3.99,0-9.19,0.69-11.61,1.55-3.25,1.15-6.3,1.39-11.87,0.91-11.42-0.97-14.75-2.15-19.97-7.04-4.34-4.05-5.18-4.42-9.89-4.42-4.25,0-5.54-0.44-7.33-2.5-2.71-3.13-3.81-3.13-8.41,0-2.02,1.37-4.86,2.56-6.29,2.64-12.56,0.7-17.84-3.16-19-13.88l-0.61-5.68-4.44-1.28c-6.55-1.9-7.5-3.96-3.61-7.85,3.02-3.02,7.78-3.22,12.22-0.51l3.18,1.94,7.95-3.85,7.95-3.84,0.61-6.35c0.34-3.49,0.73-7.64,0.87-9.23l0.27-2.88-9,0.18c-7.74,0.15-10.24-0.26-17.83-2.9-4.85-1.69-11.02-3.54-13.71-4.12-6.07-1.3-10.18-4.35-9.77-7.26,0.34-2.34,3.6-2.74,9.28-1.14l2.97,0.83-1.71-2.61c-3.69-5.63,2.37-8.2,6.42-2.72,2.2,2.97,2.22,2.98,4.07,1,1.02-1.1,2.09-1.99,2.38-1.99,1.28,0,4.21,2.11,8.19,5.9,2.36,2.25,5.06,4.09,6,4.08,3.03-0.04,17.66-2.83,20.54-3.92,4.85-1.85,9.63-1.23,15.19,1.95,5.19,2.97,5.38,3,12.12,1.87,10.84-1.82,18.97,1.53,23.02,9.48,0.88,1.73,4.01,5.4,6.97,8.17,4.39,4.12,5.37,5.64,5.37,8.34,0,2.49,0.78,3.97,3.17,5.97,3.1,2.6,3.77,3.28,9.74,9.91,2.57,2.85,3.55,3.25,7.99,3.25,3.44,0,6.78,0.84,10.44,2.64,6.15,3.01,8.82,2.77,13.58-1.23,4.3-3.62,3.89-5.24-1.96-7.71-8.35-3.53-4.77-7.58,4.54-5.12,8.51,2.26,10.15,1.92,13.02-2.62,2.68-4.24,5.7-5.96,10.46-5.96,3.36,0,6.02-0.89,6.02-2.02,0-0.44-1.74-0.56-3.86-0.28-4.51,0.61-8.14-1.01-8.14-3.62,0-2.33,1.48-3.5,6.5-5.11,7.86-2.52,8.76-3.62,8.29-10.15-0.31-4.33-1.01-6.43-2.78-8.31-4.8-5.11-13.11-9.81-24.65-13.93-6.52-2.33-13.83-5.48-16.24-7l-4.38-2.77-2.83,2.09c-5.12,3.79-9.91,2.29-9.91-3.1,0-2.66-0.24-2.8-4.5-2.8-3.72,0-5.15-0.6-8.32-3.46-3.77-3.41-3.93-3.45-10.76-2.88-8.63,0.72-19.77-2.28-22.97-6.2l-2.05-2.5-4.11,3.52c-4.41,3.77-8.67,4.59-9.71,1.86-0.79-2.06,2.28-5.45,8.69-9.61,2.62-1.71,4.61-3.58,4.42-4.17-0.2-0.58-2.57-1.89-5.28-2.9-5.98-2.24-17.44-1.57-25.14,1.48-2.88,1.14-3.53,1.05-6-0.79-3.63-2.7-3.97-4.98-1.19-7.94,2.49-2.65,5.86-3.09,8.92-1.18,1.69,1.05,2.2,0.92,3.49-0.92,2.25-3.21,7.1-5.87,15.93-8.76,6.23-2.03,8.99-3.6,12.99-7.38,2.8-2.65,6.37-5.64,7.93-6.67,5.19-3.39,5.31-5.97,0.65-14.87-2.78-5.3-3.95-8.65-3.58-10.16,0.32-1.24,2.76-3.66,5.45-5.39,4.26-2.73,4.95-3.65,5.43-7.24,0.31-2.27,1.22-4.78,2.03-5.59,1.45-1.45,7.86-4.35,18.68-8.43,6.77-2.56,9.71-5.13,10.51-9.2,1.05-5.33,6.51-18.27,8.69-20.62,2.57-2.75,6.9-4.61,12.8-5.49,3.92-0.58,4.78-0.37,6.61,1.66,2.71,2.98,4.67,13.2,3.8,19.77-0.6,4.49-0.37,5.42,2.06,8.61,2.72,3.57,6.53,5.79,11.84,6.92,3.03,0.64,5.69,5.28,5.69,9.93,0,1.37,1.57,7.68,3.5,14.03,1.92,6.35,3.5,12.5,3.5,13.68,0,1.84,0.41,2.05,3.02,1.53,2.25-0.45,3.45-0.12,4.63,1.27,1.56,1.81,1.7,1.81,4.73,0.04,3.57-2.08,8.91-1.48,18.38,2.06,2.92,1.09,7.66,1.98,10.52,1.98,3.89,0,7,0.86,12.22,3.38,16.06,7.76,18.15,8.63,20.7,8.63,4.04,0,7.08,1.45,11.27,5.41,3.46,3.25,4.34,3.59,9.53,3.59,9.89,0,13.87,5.27,8.24,10.9-3.61,3.61-15.46,6.72-19.6,5.15-3.92-1.49-7.7-1.31-9.67,0.47-0.92,0.84-5.01,2.43-9.08,3.54-4.06,1.11-9.64,3.56-12.39,5.43-6.04,4.11-11.55,6.51-14.97,6.51-1.39,0-2.53,0.45-2.53,1s0.7,1,1.57,1c1.05,0,1.46,0.73,1.25,2.25-0.36,2.53-1.13,2.58-20.48,1.21-10.53-0.75-17.83-0.06-16.81,1.59,0.32,0.52,2.92,0.7,5.78,0.4,2.85-0.3,6.54-0.15,8.19,0.33,2.43,0.71,3,1.43,3.04,3.8,0.02,1.6,0.58,4.18,1.25,5.73,0.66,1.55,1.21,3.2,1.21,3.68,0,0.47,1.35,1.92,2.99,3.2,3.48,2.73,6.22,11.43,5.85,18.6-0.18,3.48,0.18,4.63,1.72,5.47,4.13,2.27,9.44,8.5,9.44,11.1,0,3.15,17.28,29.27,19.92,30.11,0.99,0.31,2.56,0.28,3.49-0.08,1.48-0.57,1.4-0.81-0.61-1.82-2.26-1.14-2.3-1.43-1.95-14.12,0.38-13.8,0.83-15.55,4.66-18.05,2.11-1.39,3.1-1.43,7.39-0.33,4.76,1.22,5.1,1.16,8.43-1.38,5.16-3.94,11.59-5.4,17.18-3.9,6.54,1.75,6.93,1.64,12.44-3.25,2.76-2.45,6.04-5,7.28-5.66,1.25-0.67,3.85-2.48,5.79-4.03,2.02-1.62,5.66-3.23,8.56-3.78,2.78-0.52,7.11-1.47,9.63-2.11,5.29-1.33,6.3-0.95,14.34,5.41,5.07,4.01,14.14,10.12,20.87,14.06,3.29,1.93,3.31,1.92,8.54-0.32,5.39-2.32,9.2-2.32,16.71,0.01,3.36,1.04,6.34,4.63,6.31,7.59-0.01,0.98-2.37,5.56-5.25,10.18-4.92,7.89-5.74,8.69-13.73,13.28-9.02,5.18-8.46,5.09-20.25,3.21-3.11-0.5-4.6-0.05-8.85,2.68-4.45,2.86-6.3,3.38-14.26,4.01-9.29,0.73-12.64,1.51-12.64,2.93,0,0.43,0.67,1.04,1.5,1.36,1.05,0.4,1.5,2.05,1.5,5.52,0,4.73-0.14,4.99-3.11,5.64-1.7,0.37-5.64,0.32-8.75-0.11-7.39-1.03-37.07-0.62-49.14,0.68-8.34,0.9-10.14,1.46-14.69,4.54-5.89,4-9.62,4.21-10.14,0.59-0.24-1.71-1.94-3.01-6.94-5.27-3.64-1.65-8.89-4.71-11.67-6.79-7.31-5.48-7.09-5.41-13.1-4.16-3.74,0.78-5.97,1.85-6.91,3.32-1.49,2.32-6.55,17.29-6.55,19.36,0,0.69,2.13,4.19,4.74,7.78,3.89,5.37,5.23,6.54,7.55,6.54,2.72,0,2.8-0.15,2.51-4.65-0.38-5.81,1.22-6.61,5.05-2.52,2.5,2.68,3.28,2.96,6.98,2.46,3.5-0.47,4.17-0.28,4.17,1.17,0,0.95-1.34,2.98-2.97,4.5-2.57,2.41-2.85,3.17-2.11,5.77,1.09,3.8-0.01,5.69-2.8,4.8-1.52-0.48-2.12-0.24-2.12,0.83,0,0.83,0.9,1.79,2,2.14,3.09,0.98,2.59,4.5-0.64,4.5-3.8,0-7.55,4.38-7.17,8.36,0.35,3.55-1.16,3.03,20.31,7.08,34.48,6.51,63.52,18.44,86.03,35.34,15.8,11.85,36.77,34.52,63.1,68.22,4.94,6.32,25.89,34,46.54,61.5,20.7,27.5,40,52.99,43,56.65,39.9,49.63,60.8,68.99,109.3,101.73,58.7,39.61,111.4,62.31,155.5,67.11,16.5,1.8,54.8,2.9,70.5,2,30.7-1.8,43.4-6.1,93-32.21,25.1-13.15,39.8-19.99,53.5-24.78,5.3-1.83,9.9-3.68,10.4-4.11,0.5-0.42-0.5-2.18-2.2-3.91-4-4-4.1-5.41-0.1-4.62,3.3,0.67,3.3,0.39-0.7-5.05-4.1-5.56-2.8-5.79,4.7-0.77,5.3,3.54,6.9,3.45,6.9-0.4,0-0.75,1.1-5.02,2.5-9.5,1.8-5.84,3.7-9.56,6.7-13.14,2.2-2.75,5.3-7.75,6.9-11.09,1.8-4.17,4.2-7.29,7.3-9.88,4.8-3.91,5.7-6.4,3.1-8.53-0.8-0.69-1.5-1.87-1.5-2.63,0-0.75-0.6-1.37-1.4-1.37s-2-0.6-2.8-1.32c-0.7-0.73-2.5-2.14-4.1-3.15-1.5-1-3.4-3.22-4.2-4.93-0.9-1.71-2.2-4.22-3-5.58-0.7-1.37-1.7-4.77-2-7.57-0.6-4.55-0.3-5.61,2.4-9.97,2.8-4.35,3.1-5.7,3.1-12.46v-7.59l5.3-5.03c2.9-2.77,6.9-6.27,9-7.77,6.7-4.94,5.2-6.38-10.3-9.8-9.4-2.04-13.2-2.28-36-2.31-22.1-0.02-25.4-0.22-25.2-1.52,0.6-2.9,3.5-3.83,13.9-4.54,16-1.09,35.3-0.02,47.3,2.63,5.8,1.28,12.8,2.34,15.5,2.36,2.8,0.03,5.5,0.32,6,0.66,0.6,0.33,2.3,0.9,3.7,1.26,1.5,0.36,3.6,1.5,4.5,2.54,2.4,2.45,17.1,10.23,20.1,10.57,3.7,0.4,7.9,5.2,9.2,10.36,0.6,2.56,2.3,6.35,3.7,8.42,1.6,2.29,2.8,5.65,3.1,8.55,0.4,4.54,0.3,4.92-3.2,7.54-2.8,2.16-3.6,3.44-3.6,6,0,1.82-1.2,5.22-2.7,7.7-1.6,2.44-3.4,5.74-4.1,7.32-1.1,2.54-1.6,2.81-4.6,2.33-3.2-0.52-3.4-0.39-3.9,3.13-0.4,2.01-0.7,6.08-0.7,9.03,0,5.58-0.1,5.18,11.8,30.25,2.8,5.84,5.4,11.8,5.8,13.26,0.9,3.82,2.1,4.06,5.2,1.11,3.1-3,10.2-6.89,11-6.08,0.3,0.3-0.7,2.1-2.1,4-1.5,1.9-2.7,3.63-2.7,3.84s6.5,0.18,14.5-0.06c42.3-1.27,97.1,8.72,122.5,22.38l13.8,8.38-8,75.35,0.2,80.7h-640-639.97l0.03-147.74zm1116.9-137.87c0-2.57-0.6-3.65-3-5.04-1.6-0.97-3.4-3.17-4-4.88-0.7-2.29-2.7-4.1-7.2-6.79-5.7-3.38-10.8-4.75-10.8-2.92,0,0.41,1.6,3.9,3.5,7.75s3.7,8.22,4,9.71c0.4,2.15,1.4,2.97,4.8,3.95,2.3,0.68,4.6,1.78,5,2.44,0.5,0.91,1.6,0.94,4.2,0.13,3.1-0.94,3.5-1.47,3.5-4.35zm-38-2.68c2,0.53,3.6-1.53,2.8-3.79-0.4-1.38-6.8,3.71-6.7,5.42,0,0.64,0.4,0.42,1-0.49,0.6-1.02,1.7-1.46,2.9-1.14zm-788.72-237.1c3.41-2.59,0.65-5.1-3.04-2.76-0.7,0.45-0.99,1.56-0.64,2.49,0.76,1.99,1.36,2.03,3.68,0.27zm95.22-46.55c0.62-1.02-2.39-1.64-11.97-2.48-3.3-0.28-8.03-0.76-10.5-1.06l-4.5-0.55,4,1.56c7.33,2.85,21.78,4.44,22.97,2.53zm-139.95-105.3c-0.16-4.85-0.95-9.8-1.91-12-1.48-3.4-1.99-3.75-5.38-3.69-2.05,0.03-6.85,0.6-10.67,1.26-6.81,1.18-6.99,1.29-9.74,5.97l-2.8,4.77,4.76-0.63c5.75-0.76,12.34,0.82,17.56,4.21,3.15,2.05,3.73,2.93,3.24,4.86-0.5,2-0.16,2.43,2.17,2.78,1.51,0.23,2.82,0.48,2.9,0.57,0.09,0.08,0.03-3.57-0.13-8.1zm-12.38,4.21c-1.3-1.08-3.1-1.95-4-1.93-1.29,0.02-1.13,0.46,0.72,2,1.3,1.08,3.1,1.95,4,1.93,1.28-0.02,1.13-0.46-0.72-2zm34.55-47.7c-1.54-1.54-1.69-1.55-1.69-0.06,0,0.89,0.56,1.83,1.25,2.07,2.04,0.73,2.25-0.21,0.44-2.01z"/>
      <path id="path1471" fill="#4e3116" d="M508.93,991.99v-147.82l8.38-21.43c22.42-57.33,41.28-98.26,55.14-119.65,6.8-10.5,26.61-30.62,39.88-40.51,22.77-16.96,48.36-26.88,76.69-29.72,10.3-1.03,14.75-1.7,23.11-3.49,1.61-0.34,3.22-1.68,4.01-3.32,0.8-1.68,2.64-3.18,4.72-3.85,1.96-0.64,3.76-2.05,4.23-3.31,0.74-1.99,1.28-2.14,5.33-1.53,5.34,0.8,5.62,0.02,2.11-5.97-1.31-2.25-3.83-7.91-5.59-12.58-4.53-12.07-13.02-19.71-17.92-16.13-3.8,2.78-8.45,4.13-14.31,4.14-3.46,0-8.4,0.65-11,1.44-9.69,2.94-26.7-0.72-31.46-6.77-2.78-3.53-6.08-4.95-9.86-4.24-2.81,0.52-3.81,0.15-6.43-2.41-1.71-1.67-3.5-3.03-3.99-3.03s-2.34,1.22-4.11,2.71c-2.58,2.17-4.44,2.77-9.33,3.04-9.91,0.53-14.39-3.33-15.47-13.37l-0.63-5.82-4.75-1.34c-5.37-1.52-6.32-4.01-2.53-6.67,2.97-2.08,5.28-1.96,9.69,0.51l3.68,2.07,8.57-4.09,8.57-4.09,0.72-6.73c0.4-3.7,0.8-8.3,0.89-10.22l0.16-3.5-8.78,0.36c-7.91,0.32-9.88,0-20-3.27-6.17-2-13.13-4.09-15.46-4.65-2.53-0.6-4.67-1.85-5.34-3.09-1.87-3.5,0.21-4.23,6.45-2.26,6.41,2.02,7.92,1.41,4.8-1.91-2.46-2.62-2.87-5.68-0.76-5.68,0.77,0,2.55,1.35,3.93,3,2.79,3.31,4.42,3.77,5.3,1.5,1.05-2.75,4.74-1.56,9.41,3.04,2.54,2.51,5.48,4.59,6.53,4.63,2.77,0.1,18.46-2.86,21.75-4.11,4.54-1.73,7.6-1.25,13.43,2.08,5.39,3.09,5.62,3.13,11.74,2,10.42-1.92,18.38,0.93,22.62,8.11,2.43,4.12,4.64,6.61,9.18,10.36,1.56,1.29,2.81,3.61,3.22,6,0.5,2.87,2.02,5.22,5.83,8.99,2.83,2.8,6.33,6.52,7.78,8.25,2.37,2.82,3.2,3.15,8.11,3.15,4.2,0,6.82,0.71,11.26,3.08l5.79,3.09,3.91-1.77c4.2-1.89,9.1-6.93,8.54-8.78-0.19-0.62-2.35-2.14-4.79-3.39-8.31-4.24-6.09-5.1,6.78-2.63,5.07,0.97,8-0.24,9.81-4.04,1.74-3.68,5.44-5.56,10.93-5.56,2.03,0,3.97-0.84,5.36-2.33,2.83-3.01,2.02-3.68-2.94-2.42-6.31,1.6-11.66-1.82-6.83-4.37,0.79-0.42,4.02-1.89,7.19-3.27l5.75-2.5v-5.61c0-3.08-0.68-6.91-1.5-8.5-2.64-5.1-13.42-11.8-26.52-16.47-6.61-2.36-13.8-5.47-15.98-6.91-4.76-3.15-5.45-3.2-8.73-0.62-3.06,2.4-5.57,2.55-7.34,0.41-1.03-1.24-1.06-1.99-0.12-3.48,1.77-2.84,1.64-2.93-4.25-2.93-4.9,0-5.9-0.4-9.99-3.94-4.14-3.58-4.83-3.85-7.8-3-5,1.43-9.31,1.13-16.92-1.18-4.73-1.44-7.45-2.87-8.52-4.5-2.06-3.15-2.88-3.03-7.46,1.12-3.9,3.51-7.87,4.62-7.87,2.19,0-1.74,5.7-7.07,9.75-9.11,3.64-1.83,4.08-3.54,1.5-5.8-3.5-3.05-9.18-4.08-18.67-3.36-4.99,0.37-9.51,1.11-10.03,1.63-1.34,1.33-5.92,1.18-7.35-0.25-2.12-2.12-1.41-5.75,1.35-7.01,2.07-0.95,3.08-0.85,5.35,0.49,2.73,1.61,2.85,1.58,5.69-1.41,3.64-3.82,6.26-5.19,16-8.37,6.21-2.03,8.88-3.59,13.37-7.77,3.08-2.88,6.82-6.23,8.3-7.46,4.43-3.66,4.39-6.13-0.27-15.06-4.81-9.21-4.61-10.62,2.02-14.34,3.19-1.79,4.22-3.09,5.02-6.32,1.82-7.32,0.94-6.62,16.47-13.12,6.05-2.54,11.54-5.06,12.2-5.6,0.66-0.55,1.71-2.65,2.33-4.66,2.4-7.75,6.43-17.79,8.15-20.31,3.13-4.61,15.99-8.09,18.95-5.13,1.83,1.82,3.71,13.89,3.15,20.12l-0.52,5.65,5.08,4.75c3.3,3.09,5.96,4.75,7.61,4.75,3.48,0,6.32,3.12,7.01,7.69,0.31,2.09,2.01,8.76,3.78,14.81,2.45,8.38,3.16,12.58,2.98,17.67-0.21,5.92-0.01,6.76,1.76,7.32,3.26,1.04,4.34-0.36,2.47-3.21-1.38-2.1-1.43-2.69-0.31-3.4,2.12-1.34,4.86-1.03,5.5,0.62,0.73,1.92,2.76,1.92,4.36,0,1.84-2.23,8.48-1.82,16.5,1.01,4.07,1.44,9.22,2.48,12.32,2.48,3.94,0,6.79,0.77,11,2.96,10.71,5.57,18.68,8.8,23.44,9.48,3.52,0.51,5.95,1.72,9.31,4.63,4.1,3.55,5.09,3.94,10.03,3.94,4.49,0,5.93,0.44,7.94,2.45,2.13,2.13,2.31,2.79,1.31,4.97-1.87,4.11-8.66,6.11-19.81,5.86-7.08-0.16-9.86,0.15-11.05,1.22-0.88,0.8-5.17,2.49-9.54,3.76-5.12,1.49-9.65,3.63-12.72,5.98-3.62,2.78-6.69,4.08-12.75,5.38-4.39,0.94-7.98,2.02-7.98,2.4s1.38,1.09,3.07,1.58,2.93,1.35,2.75,1.9c-0.34,1.04-0.84,1.04-17.92-0.08-5.83-0.38-13.25-0.36-16.48,0.04l-5.89,0.74,2.48,2.01c2.01,1.62,3.4,1.9,7.3,1.43,2.66-0.31,6.19-0.3,7.85,0.04,2.53,0.5,2.94,0.99,2.56,2.98-0.25,1.31-0.1,2.6,0.34,2.87,0.43,0.27,1.32,2.17,1.97,4.23,0.64,2.05,2.48,4.86,4.07,6.24,3.34,2.88,6.07,11.69,5.66,18.27-0.25,3.89,0.01,4.31,4.97,8.04,4.11,3.09,5.36,4.71,5.88,7.56,0.36,1.99,1.1,4.53,1.66,5.63,1.56,3.1,16.94,24.9,18.15,25.73,1.39,0.95,12.5,0.85,15-0.13,2.42-0.95,0.92-1.63-5.76-2.63-2.53-0.38-5.03-1.21-5.56-1.85-0.57-0.69-0.72-5.95-0.38-12.95,0.48-9.73,0.93-12.24,2.59-14.34,1.81-2.3,2.47-2.49,6.6-1.9,6.98,1.01,7.8,0.88,11.32-1.75,5.15-3.84,10.14-5.08,15.28-3.79,7.34,1.85,9.21,1.44,14.28-3.18,2.59-2.36,6.51-5.51,8.71-6.99,2.2-1.49,4.9-3.36,6-4.16,2.17-1.58,15.2-4.56,19.93-4.56,1.96,0,4.49,1.3,7.62,3.94,2.58,2.17,6.91,5.26,9.63,6.87,2.72,1.6,7.09,4.55,9.71,6.55,5.12,3.91,8.5,4.48,12.61,2.14,5.3-3.04,17.84-1.2,20.6,3.01,1.49,2.27,1.42,2.75-1.14,7.79-5.32,10.5-8.53,13.87-17.81,18.61l-8.63,4.41-5.91-1.79-5.9-1.79-6.01,3.71c-5.37,3.32-7.03,3.8-15.48,4.53-12.33,1.05-16.75,3.32-11.72,6.02,1.46,0.78,2,2.09,2,4.9,0,3.55-0.24,3.87-3.25,4.35-1.79,0.29-5.5,0.17-8.25-0.27-5.87-0.92-51.39,0.54-56.5,1.82-1.93,0.48-5.6,2.36-8.17,4.17-5.02,3.54-7.48,3.51-8.01-0.11-0.24-1.71-1.76-2.82-6.32-4.64-3.3-1.31-8.93-4.63-12.5-7.38-6.31-4.85-6.65-4.97-11.5-4.35-8.65,1.11-9.65,2.01-13.19,12.01-1.75,4.95-3.21,10.12-3.25,11.5-0.07,2.82,8.53,15.56,10.97,16.26,0.85,0.24,2.57,0.06,3.83-0.41,1.91-0.71,2.24-1.46,1.97-4.52-0.39-4.56,1.41-5.41,3.78-1.8,1.54,2.35,2.2,2.59,5.57,2.05,4.63-0.74,5.29,1.4,1.26,4.05-2.26,1.47-2.49,2.14-1.92,5.52,0.78,4.62-1.31,5.34-3.93,1.35-1.79-2.74-5.16-3.27-7.92-1.25-1.58,1.15-1.59,1.42-0.09,3.55,1.29,1.85,2.19,2.18,4.51,1.67,2.17-0.47,2.91-0.26,2.91,0.82,0,0.8,0.67,2.02,1.5,2.71,2.22,1.84,1.82,3-1.03,3-1.4,0-2.79,0.67-3.11,1.5-0.32,0.82-1.2,1.5-1.97,1.5-1.6,0-2.04,9.48-0.47,10.44,0.5,0.32,6.24,1.49,12.75,2.61,46.79,8.05,81.9,24.23,109.01,50.23,18.83,18.07,36.96,40.49,94.29,116.72,76.5,101.59,91.1,116.77,150.5,156.89,61.5,41.5,115,64.1,162,68.6,15.8,1.5,52.3,2.3,66.1,1.5,30.1-1.8,39-4.8,88.9-30.1,36-18.14,57-27.61,65.3-29.38,4-0.84,5.1-2.92,2.8-5.38-2-2.26-2.1-4.54-0.1-3.77,1.8,0.68,2-1.57,0.4-4.52-1.6-3.17-0.2-3.36,3.5-0.48,1.9,1.45,3.7,2.64,4,2.64,0.2,0,0.8-1.47,1.1-3.25,2.1-10.19,5.9-19.98,9.2-23.92,1.9-2.33,5-7.26,6.9-10.97,2.1-4.26,5-8.1,7.9-10.48,5.2-4.37,6.1-6.07,4.2-8.28-0.7-0.88-1.8-2.84-2.5-4.35-0.6-1.52-1.8-2.75-2.7-2.75-2.2,0-9.5-6.02-9.5-7.86,0-0.83-0.9-2.47-2-3.64s-2.5-4.66-3.1-7.76c-1.1-5.5-1.1-5.76,2-10.37,2.9-4.3,3.1-5.43,3.1-12.74v-8.01l5.3-4.87c2.9-2.68,7.1-6.08,9.5-7.56,2.3-1.48,4.2-3.17,4.2-3.75,0-4.01-5.7-6.17-24-9.05-8.3-1.32-14.8-1.55-31.2-1.14-12.3,0.31-20.8,0.16-20.8-0.39,0-2.03,6.3-3.05,22-3.58,17.3-0.58,28.2,0.53,45.3,4.59,5.2,1.25,8.1,1.51,9.3,0.83,1.2-0.67,2.3-0.61,3.6,0.16,1,0.62,2.6,1.14,3.7,1.14,1,0,3,1.05,4.4,2.34,3.4,3.21,19.2,11.66,21.8,11.66,3,0,6.6,4.14,7.9,9.04,0.7,2.35,2.5,6.6,4.1,9.45,3.9,6.88,3.8,10.64-0.2,13.79-2.2,1.74-3.3,3.67-3.9,6.82-0.5,2.42-2.5,7.21-4.6,10.66-3.6,6.04-3.8,6.24-7,5.65-3.1-0.59-3.3-0.47-4,3.24-0.4,2.11-0.8,6.36-0.8,9.43,0,5.87,1.1,8.77,12.5,32.42,2.6,5.5,5.1,11.27,5.5,12.83,1,4.08,2.9,4.28,7.1,0.76,4.7-3.81,5.4-3.86,4.7-0.31l-0.5,2.79,23.3,0.04c24,0.04,35.9,0.99,55.8,4.46,22.4,3.9,41.1,9.35,57.3,16.68l16.3,9.26-8.6,74.58v80.4h-640-639.97v-147.81zm1113.4-132.23c4.2-1.86,4.6-2.37,4.6-5.45,0-2.71-0.7-3.94-3.5-6.07-1.9-1.47-3.5-3.52-3.5-4.55,0-2.17-6.5-7.24-12.8-9.99l-4.3-1.89-3.4,2.61c-1.9,1.43-4.4,4.11-5.5,5.96-1.2,1.85-4.1,5.12-6.5,7.27-2.5,2.15-4.5,4.34-4.5,4.88,0,1.54,3.1,7.28,3.9,7.28,0.4,0,0.6-1.31,0.4-2.91-0.4-2.34-0.1-2.88,1.3-2.75,1.3,0.11,2.3-1.01,3.2-3.84,0.7-2.2,2.4-5.15,3.8-6.56,1.3-1.4,2.4-3.32,2.4-4.25,0-3.14,2.8-1.73,5.3,2.64,1.3,2.39,3,7.1,3.8,10.46,1.1,4.91,1.6,5.9,2.7,5.02,1.7-1.44,6.2,0.5,6.2,2.66,0,2,0.9,1.93,6.4-0.52zm-725.77-290.99c3.63-1.38,2.19-2.46-5.1-3.8-6.95-1.28-29.5-2.73-29.5-1.89,0,0.75,11.48,4.54,17.07,5.64,6.31,1.24,14.34,1.26,17.53,0.05zm-139.67-99.1c-0.63-1.17-1.11-4.82-1.06-8.11,0.06-4.07-0.61-7.59-2.07-11l-2.16-5.02-8.17,0.63c-13.36,1.02-14.1,1.3-17.4,6.67-2.06,3.36-4.01,5.18-6.51,6.08-1.96,0.71-3.56,1.57-3.56,1.92,0,1.66,1.67,1.62,8.09-0.2,5.89-1.66,7.77-1.8,12.21-0.88,6.15,1.28,11.7,4.38,11.7,6.53,0,2.13-1.36,1.89-5.6-0.98-2.02-1.38-4.27-2.5-4.98-2.5-2.4,0-2.69,2.18-0.57,4.29,1.99,2,11.49,4.37,18.43,4.61,2.54,0.09,2.69-0.09,1.65-2.04zm14.07-33.86c0-0.55-0.45-1-1-1s-1,0.45-1,1,0.45,1,1,1,1-0.45,1-1z"/>
      <path id="path1469" fill="#000" d="M508.93,991.88c0-120.16,0.24-148.18,1.3-149.25,0.72-0.73,4.6-9.87,8.64-20.32,19.19-49.7,42.2-99.42,54.85-118.51,5.2-7.86,10.22-13.66,19.88-23,30.73-29.71,59.28-43.17,99.83-47.07,6.6-0.64,12.76-1.55,13.68-2.04,0.93-0.49,3.08-0.88,4.79-0.88,2.45,0,3.51-0.7,5.07-3.35,1.37-2.33,3.18-3.71,5.96-4.54,2.48-0.74,4-1.8,4-2.78,0-1.29,0.74-1.47,3.88-0.97,6.2,0.99,7.04-1.06,3.21-7.86-1.72-3.04-4.47-9.21-6.11-13.71-3.21-8.81-6.33-12.87-12.19-15.89-4.77-2.45-5.41-2.41-8.97,0.6-2.53,2.12-3.99,2.5-9.72,2.5-3.71,0-9.15,0.71-12.09,1.58-4.06,1.21-7.3,1.42-13.43,0.89-10.15-0.89-14.26-2.52-19-7.52-3.45-3.64-4.18-3.95-9.05-3.95-4.55,0-5.53-0.36-6.94-2.5-2.09-3.2-5.26-3.2-9.58-0.02-4.3,3.18-9.17,4.08-14.06,2.62-5.32-1.59-7.95-5.24-7.95-11.02,0-6.06-1.91-8.65-6.97-9.46-2.22-0.36-4.03-1-4.03-1.44,0-3.14,7.14-4.3,10.56-1.72,2.82,2.14,4.36,1.91,12.63-1.86,9.65-4.39,10.81-5.62,10.81-11.43,0.01-2.57,0.48-6.36,1.05-8.41,0.74-2.68,0.71-4.34-0.1-5.86-1.07-2-1.64-2.08-9.42-1.44-7.77,0.65-8.95,0.47-19.16-2.9-5.98-1.97-12.67-4.03-14.87-4.57-2.2-0.55-4.66-1.42-5.47-1.94-2.87-1.84-0.16-2.17,5.08-0.62,4.69,1.4,5.47,1.41,6.79,0.09,1.31-1.31,1.21-1.77-0.88-4-1.3-1.38-2.11-2.77-1.8-3.08s1.54,0.82,2.74,2.5c2.58,3.62,5.22,3.91,7.29,0.81l1.51-2.25,5.68,5.37c5.32,5.01,5.93,5.32,9.37,4.71,2.03-0.36,6.39-1.12,9.69-1.68,3.3-0.57,8.15-1.73,10.79-2.6,4.79-1.56,4.8-1.56,10.94,1.66,6,3.14,6.36,3.2,14.93,2.52,11.56-0.91,15.83,0.94,20.6,8.91,1.79,3,4.79,6.4,6.65,7.55,3.69,2.28,4.59,3.82,4.59,7.85,0,1.88,1.52,4.07,5.32,7.67,2.92,2.77,6.32,6.48,7.54,8.25,2.37,3.42,6.97,5.27,13.15,5.28,1.92,0,5.62,1.13,8.2,2.51,2.58,1.37,5.41,2.5,6.28,2.5,2.66,0,9.19-3.79,11.41-6.61,2.81-3.58,2.64-5.8-0.65-8.39-1.52-1.19-2-1.93-1.07-1.65,8.08,2.52,12.86,1.42,15.41-3.56,2.13-4.16,2.57-4.43,8.79-5.25,5.5-0.73,9.62-3.61,9.62-6.75,0-1.68-0.6-1.79-6.5-1.18-4.68,0.47-6.5,0.33-6.5-0.51,0-0.64,0.78-1.41,1.75-1.71,5.02-1.57,11.51-5.01,12.32-6.54,1.09-2.02,1.19-6.28,0.27-10.88-1.38-6.91-12.72-15.1-28.35-20.49-5.77-1.98-13.04-5.16-16.14-7.05-6.61-4.01-6.97-4.07-9.35-1.43-2,2.2-6.52,2.72-6.47,0.75,0.02-0.69,0.68-2.11,1.47-3.15,2.23-2.96,0.82-3.74-5.48-3.03-5.79,0.66-5.83,0.64-10.42-3.59l-4.61-4.24-6,1.18c-5.1,1-6.94,0.92-12.25-0.53-8.21-2.24-9.66-3.04-10.77-5.96-1.29-3.4-3.99-3.04-7.97,1.07-1.87,1.92-4.06,3.5-4.87,3.5-2.23,0,2.58-4.8,7.17-7.15,5.18-2.65,5.69-4.58,2.09-7.8-4.23-3.77-13.1-5.72-19.73-4.33-2.89,0.61-5.56,0.7-6.07,0.22-0.53-0.5,0.73-2.5,3.03-4.8,3.13-3.13,5.78-4.52,12.89-6.73,9.23-2.88,9.04-2.75,24.74-17.04,3.88-3.53,3.65-7.94-0.83-15.95-1.97-3.51-3.43-7.16-3.25-8.09,0.18-0.94,2.35-2.89,4.83-4.33,4.33-2.54,5.2-3.91,6.48-10.25,0.45-2.23,1.8-3.32,7.14-5.74,3.62-1.64,9.2-3.94,12.41-5.11,3.2-1.16,6.69-3.08,7.75-4.26s3.18-5.97,4.69-10.64c5.11-15.71,7.09-17.95,17.33-19.59,3.6-0.58,4.19-0.36,5.81,2.11,1.42,2.18,1.81,4.88,1.86,12.88,0.07,9.69,0.2,10.29,3.05,13.88,2.96,3.74,9.57,7.72,12.81,7.72,2.03,0,3.05,2.37,4.59,10.72,0.63,3.43,2.3,9.73,3.71,14,1.99,6.06,2.44,8.99,2,13.28-0.61,6.08-0.24,7.11,3.23,8.94,1.97,1.04,2.63,0.99,3.93-0.31,1.26-1.26,1.34-2.04,0.42-4.06-1.48-3.25,0.17-4.32,2.48-1.62,2.22,2.6,4.39,2.6,6.61,0,2.08-2.43,5.25-2.11,16.48,1.63,4,1.34,9.2,2.36,11.54,2.27,3.99-0.15,11.32,2.68,23.1,8.91,1.61,0.86,5.88,2.17,9.49,2.93,5.21,1.09,7.36,2.14,10.33,5.04,3.39,3.32,4.38,3.71,10.23,4.08,6.89,0.44,9.1,1.82,8.08,5.03-1.13,3.54-13.56,7.05-18.67,5.27-4.65-1.63-8.29-1.37-11.03,0.79-1.33,1.05-4.43,2.42-6.89,3.05-7.28,1.87-11.93,3.93-15.81,6.99-3.55,2.81-12.38,6.04-16.58,6.07-2.89,0.02-7.12,2.41-6.82,3.84,0.2,0.88-2.24,1.05-9.5,0.65-9.94-0.55-25.25,1.02-25.25,2.59,0,0.48,2.13,1.94,4.75,3.25,3.94,1.97,5.8,2.29,11,1.89,6.16-0.47,6.25-0.44,6.25,2.09,0,1.4,0.44,2.83,0.97,3.16,0.54,0.33,1.45,2.36,2.03,4.51,0.63,2.36,2.17,4.71,3.91,5.94,3.16,2.25,4.02,5.02,4.76,15.36,0.49,6.78,0.5,6.8,5.4,10.45,4.01,3,5.18,4.6,6.39,8.76,0.88,3.03,4.58,9.55,9.11,16.05,11.48,16.46,9.39,15.13,24.74,15.73,10.77,0.41,14.65,1,21.19,3.2,14.01,4.73,33,4.44,33-0.5,0-2.18-13.1-4.2-37.5-5.79-6.33-0.41-12.11-1.13-12.85-1.59-0.75-0.47-3.67-1.14-6.5-1.49l-5.15-0.64,0.12-12.33c0.1-10.96,0.34-12.56,2.14-14.36,1.88-1.87,2.4-1.93,7.03-0.74,4.89,1.25,5.1,1.21,9.75-1.86,5.89-3.91,10.46-4.82,16.45-3.28,5.7,1.46,9.02,0.41,14.01-4.41,7.36-7.12,16.36-12.05,25.51-13.97l8.62-1.81,4.19,3.14c3.68,2.76,16.08,11.39,23.57,16.39,3.23,2.16,7.72,2.23,12.59,0.2,7.28-3.04,18.63,0.22,18.46,5.31-0.04,0.96-2.19,5.11-4.78,9.23-4.3,6.82-5.42,7.86-12.66,11.85-8.34,4.6-8.48,4.62-19.24,2.56-2.59-0.49-4.25,0.03-8.31,2.64-4.3,2.75-6.42,3.37-13.95,4.07-11.24,1.04-16,2.89-16,6.23,0,1.62,0.69,2.61,2.07,2.97,1.58,0.42,2,1.2,1.75,3.31l-0.32,2.77-29,0.16c-32.5,0.19-38.88,0.95-45.13,5.44-5.02,3.6-5.6,3.67-6.89,0.81-0.61-1.38-3.23-3.09-6.98-4.58-3.3-1.3-8.9-4.59-12.45-7.29-6.96-5.32-10.44-6.06-18.27-3.88-4.86,1.35-6.24,3.47-9.92,15.28l-3.06,9.82,5.78,8.43c5.2,7.57,6.1,8.43,8.94,8.43,4.26,0,6.95-3,6.02-6.69l-0.7-2.77,2.56,2.75c1.99,2.16,3.15,2.63,5.32,2.19l2.78-0.57-2.25,1.66c-1.59,1.18-2.25,2.7-2.25,5.18v3.51l-2.12-2.68c-1.78-2.27-2.61-2.59-5.25-2.02-5.71,1.22-7.19,4.06-3.97,7.61,1.27,1.41,1.42,2.35,0.64,4.08-1.28,2.83,0.16,15.69,1.93,17.28,0.7,0.62,6.29,1.9,12.42,2.84,23.28,3.58,46.1,10.47,65.35,19.73,37.62,18.12,55.84,37.23,130.47,136.9,66.3,88.4,87.2,113.15,112.9,133.72,62.9,50.37,129.2,86.17,181.1,97.77,16,3.5,23.8,4.3,54.7,5.7,40.4,1.7,60.2-0.3,82.5-8.4,4.8-1.7,27.3-12.4,49.8-23.8,28.3-14.18,44.8-21.87,53-24.68l12-4.08-0.1-3.62c0-1.99,0.3-3.61,0.8-3.61,0.4,0,0.8-1.2,0.8-2.66,0-2.51,0.1-2.56,1.9-1,2.8,2.54,4,2,4.6-2.09,0.4-2.07,1.3-5.55,2-7.75,0.8-2.2,1.9-5.89,2.5-8.18,0.6-2.3,2.6-6.05,4.5-8.34,2-2.29,5.4-7.68,7.6-11.98,2.9-5.66,5.1-8.54,8-10.42,4.3-2.88,5.9-6.7,3.8-9.25-0.8-0.9-1.8-3.03-2.4-4.74-0.7-2.09-1.6-3.09-3-3.09-2.6,0-9.5-5.3-9.5-7.31,0-0.86-0.9-2.51-1.9-3.66-1.3-1.3-2.3-4.22-2.7-7.71-0.6-5.17-0.4-5.94,2.3-9.41,2.6-3.52,2.8-4.32,2.6-11.77l-0.3-7.99,4.5-4.24c2.4-2.33,7.1-6.1,10.5-8.37,3.3-2.26,6-4.45,6-4.86s-0.9-1.51-2-2.45-2-2.14-2-2.66c0-1.49,4-2.35,5.4-1.17,0.7,0.59,1.6,0.82,1.9,0.51s1.9,0.13,3.5,0.97c3.3,1.69,5,4.62,2.8,4.62-0.8,0-3.3,2.05-5.7,4.57-2.4,2.51-6.7,7.02-9.6,10.02s-5.3,6.28-5.3,7.3c0,2.49,2.7,8.79,4.1,9.68,1.8,1.05,4.6-3.26,6.4-9.64,0.8-3.1,2.6-6.64,4-7.94,1.4-1.29,2.5-2.94,2.5-3.67s0.5-1.32,1-1.32c0.6,0,1,0.49,1,1.09s0.9,2.29,1.9,3.75c2.5,3.62,4,11.2,2.8,14.16-0.4,0.82-0.2,2.17,0.4,3,0.8,1.28,1.2,1.17,2.9-0.75,1-1.24,2.3-2.25,2.9-2.25,0.5,0,1.1,1.01,1.3,2.25,0.5,3.16,3.3,3.15,9.8-0.04,5.3-2.62,5.5-2.85,5.4-6.59-0.1-3.1-0.9-4.55-3.7-7.2-2-1.83-3.7-3.88-3.7-4.56s-1-2.39-2.2-3.8-1.6-2-0.8-1.31c0.8,0.68,2.8,1.25,4.6,1.25,3.9,0,7,3.23,8,8.28,0.3,2.08,1.7,5.33,3,7.23,1.3,1.89,2.8,5.33,3.5,7.64,1.1,4.13,1,4.25-2.5,7.27-2.8,2.36-3.8,4.18-4.5,7.84-0.4,2.62-2,6.47-3.4,8.55-1.5,2.09-2.7,4.37-2.7,5.08,0,0.94-1,1.1-3.9,0.62-2.1-0.36-4.1-0.25-4.4,0.24s-0.9,5.04-1.3,10.11l-0.7,9.22,4.3,9.21c2.3,5.06,6.3,13.41,8.8,18.56,2.5,5.14,5,11.22,5.7,13.5,1.4,4.81,4.1,5.85,7,2.69,2.2-2.42,3.5-2.63,3.5-0.54,0,1.28,3.2,1.5,22.6,1.5,24.9,0,44.9,1.71,64.4,5.53,16.4,3.21,35.3,8.76,46.5,13.66,5,2.16,9.8,3.79,10.5,4.22,6.8,3.85,7,4.3,10.5,7.23,0,0-0.4,72.65-0.4,72.65l-0.3,80.4-647.8,0.3h-639.97v-147.92zm251-518.96c0-0.49-0.67-2.18-1.5-3.75-0.86-1.65-1.44-5.21-1.37-8.39,0.14-6.62-3.3-15.57-6.36-16.55-1.7-0.54-13.05,0.64-20.4,2.12-1.16,0.24-3.49,2.54-5.17,5.11-2,3.08-4.53,5.4-7.37,6.77-8.23,3.95-3.42,7.33,5.91,4.15,2.54-0.87,6.11-1.57,7.94-1.57,3.05,0,3.23,0.16,2.12,1.94-1.01,1.61-0.88,2.31,0.73,4.09,2.89,3.19,4.89,4.01,13.31,5.43,9.65,1.63,12.16,1.76,12.16,0.65zm12.04-35.67c1.06-1.28,1-1.83-0.38-3.21-1.55-1.55-1.77-1.55-3.33,0-1.37,1.38-1.44,1.93-0.37,3.21,0.7,0.86,1.62,1.56,2.04,1.56,0.41,0,1.33-0.7,2.04-1.56zm25.56,183.96c-0.78-2.02,1.39-3.81,2.85-2.36,0.62,0.62,0.4,1.53-0.61,2.54-1.43,1.43-1.63,1.41-2.24-0.18zm-166.6-166.9c-1.53-1.85,0.24-4.5,3-4.5,2.75,0,4.53,2.65,3,4.5-0.69,0.82-2.04,1.5-3,1.5-0.97,0-2.32-0.68-3-1.5z"/>
     </g>
    </g>
   </g>
  </g>
 </g>
</svg>
